PathFileType	4	(X/Y/Z)	1_Data\ik.trc
DataRate	CameraRate	NumFrames	NumMarkers	Units	OrigDataRate	OrigDataStartFrame	OrigNumFrames
120.000000	120.000000	4	54	mm	120.000000	98	131
Frame#	Time	Sternum			Neck			RShoulder			LShoulder			Xiphoid			Thoracic			RAsis			LAsis			RPsis			LPsis			Lumbar			RElbow			RWrist			RRadius			RUlna			LElbow			LWrist			LUlna			LRadius			LThighSuperior			LThighInferior			LThighLateral			LPatella			LShankSuperior			LShankInferior			LShankLateral			RThighSuperior			RThighInferior			RThighLateral			RPatella			RShankSuperior			RShankInferior			RShankLateral			RHeel			RToe			RMidfootMedial			RMidfootLateral			RHindfoot			RMidfootSuperior			RToeMedial			RToeLateral			LHeel			LToe			LMidfootMedial			LMidfootLateral			LHindfoot			LMidfootSuperior			LToeMedial			LToeLateral			Oglobal			Sacral			Xglobal			Yglobal			Zglobal			
		X1	Y1	Z1	X2	Y2	Z2	X3	Y3	Z3	X4	Y4	Z4	X5	Y5	Z5	X6	Y6	Z6	X7	Y7	Z7	X8	Y8	Z8	X9	Y9	Z9	X10	Y10	Z10	X11	Y11	Z11	X12	Y12	Z12	X13	Y13	Z13	X14	Y14	Z14	X15	Y15	Z15	X16	Y16	Z16	X17	Y17	Z17	X18	Y18	Z18	X19	Y19	Z19	X20	Y20	Z20	X21	Y21	Z21	X22	Y22	Z22	X23	Y23	Z23	X24	Y24	Z24	X25	Y25	Z25	X26	Y26	Z26	X27	Y27	Z27	X28	Y28	Z28	X29	Y29	Z29	X30	Y30	Z30	X31	Y31	Z31	X32	Y32	Z32	X33	Y33	Z33	X34	Y34	Z34	X35	Y35	Z35	X36	Y36	Z36	X37	Y37	Z37	X38	Y38	Z38	X39	Y39	Z39	X40	Y40	Z40	X41	Y41	Z41	X42	Y42	Z42	X43	Y43	Z43	X44	Y44	Z44	X45	Y45	Z45	X46	Y46	Z46	X47	Y47	Z47	X48	Y48	Z48	X49	Y49	Z49	X50	Y50	Z50	X51	Y51	Z51	X52	Y52	Z52	X53	Y53	Z53	X54	Y54	Z54	

99	0.8166666666666669	907.6316528320312	1448.197387695312	123.7659683227539	744.9370727539062	1545.776611328125	148.8552551269531	810.3944091796875	1528.06689453125	303.2247619628906	757.5458984375	1537.49072265625	5.931223869323729	943.8268432617188	1290.897338867188	123.7717971801758	666.735107421875	1326.747192382812	161.6168823242188	880.8729248046875	1029.922607421875	269.1965942382813	854.04638671875	1014.776000976562	-2.738351821899371	682.6240234375	1044.186401367188	209.3074798583985	666.6522827148438	1035.9375	107.2922058105469	670.70458984375	1108.583862304688	141.1967315673828	774.350830078125	1198.921875	418.1273193359376	887.3783569335938	950.41796875	437.4841918945313	899.4127197265625	943.6558227539062	386.2866210937501	846.243408203125	934.4388427734375	446.8314819335938	706.7828369140625	1201.018188476562	-109.0500106811523	802.4654541015625	962.3612060546875	-191.7562408447265	767.6320190429688	948.4951782226562	-163.62353515625	845.0903930664062	963.0347900390625	-164.9700927734374	827.1409912109375	844.8768310546875	-36.9230461120605	912.7080078125	630.5530395507812	-49.8697204589843	963.4478759765625	750.9593505859375	-5.95866537094109	1015.946166992188	537.8438720703125	-1.542827486991791	826.9891967773438	439.2861938476562	-47.91346740722649	723.7868041992188	286.5402221679688	-1.952535152435232	823.9515991210938	336.1695861816406	23.11437034606941	833.4977416992188	828.2330932617188	320.3431701660157	850.821044921875	589.4491577148438	285.4172058105469	927.0169677734375	748.7627563476562	244.3021545410157	924.4581298828125	523.4267578125	222.7009735107423	830.0722045898438	429.4440307617188	291.247039794922	812.517333984375	176.4429321289063	251.2524871826173	870.0911254882812	301.4922485351562	208.6731719970704	716.5154418945312	66.27607727050783	195.7465209960938	1033.198852539062	50.77586364746095	207.4467620849611	937.50634765625	32.88414001464844	156.4645233154298	931.8059692382812	30.22130012512209	273.9031982421876	877.9490356445312	31.5034809112549	264.768280029297	899.8084716796875	94.46144866943361	206.1115875244142	980.3880615234375	35.65892028808594	159.8179779052736	980.8479614257812	36.8306007385254	263.2922973632814	592.9149780273438	242.7785491943359	72.35034942626959	822.3729248046875	46.98928833007812	-0.2410860955714201	740.1885986328125	85.11875152587891	72.84336090087899	714.7025146484375	85.92745971679688	-37.98410797119133	675.9510498046875	116.4704132080078	-20.08424186706536	753.2125854492188	150.1531982421875	20.79209327697762	773.6779174804688	60.91170883178712	60.42906188964852	756.8767700195312	67.65738677978516	-41.99972915649406	0	0	0	674.63818359375	1040.061889648438	158.2998504638672	-200	0	-2.449293598294706e-14	-2.449293598294706e-14	1.224646799147353e-14	200	1.499759782661858e-30	200	-1.224646799147353e-14	
100	0.8250000000000002	915.4796142578125	1448.852416992188	123.7435531616211	752.7665405273438	1546.244506835938	149.0973510742188	818.6203002929688	1528.941040039062	303.2954711914062	765.200927734375	1537.798095703125	6.169617652893066	951.6138305664062	1291.316162109375	123.7934646606446	674.7313232421875	1327.28369140625	162.2637634277344	888.4201049804688	1030.31884765625	269.5149841308594	861.6077270507812	1015.363830566406	-2.464532136917071	690.1976928710938	1044.801147460938	209.5952453613282	674.2866821289062	1036.839965820312	107.6252975463867	678.3836059570312	1109.358154296875	141.5133972167969	785.3507080078125	1199.744018554688	418.9326171875001	903.6265258789062	953.7197875976562	438.4252929687501	916.2256469726562	947.251953125	387.4582824707032	862.8018188476562	936.8706665039062	447.5945129394532	712.5620727539062	1201.61279296875	-107.7698516845703	801.5634765625	960.6322021484375	-190.7613677978515	767.2111206054688	947.5977172851562	-161.6035003662109	844.6303100585938	960.4692993164062	-164.933609008789	833.40478515625	846.6674194335938	-39.19623184204097	923.783935546875	632.9328002929688	-50.33204650878898	973.035888671875	753.9824829101562	-6.259254932403492	1028.543823242188	542.0394287109375	-2.211968183517363	843.7741088867188	438.086181640625	-48.37425613403312	743.7920532226562	282.5981750488281	-2.191465616226123	841.8245239257812	334.822021484375	22.71636581420907	839.396484375	828.35107421875	320.4598083496094	853.99658203125	589.4442138671875	285.6095886230469	931.8773803710938	748.1068115234375	244.1864013671876	926.7280883789062	522.4524536132812	222.8042907714845	832.0040283203125	429.5338134765625	291.3653259277345	813.04345703125	176.5538787841797	251.3452148437501	871.345458984375	301.3675537109375	208.8148193359376	716.0386962890625	66.79992675781251	196.1883239746095	1033.2685546875	50.71701431274415	207.6282653808595	937.4910888671875	32.88029098510743	156.4046173095704	931.812744140625	30.10001373291017	273.9939880371095	878.9838256835938	31.57055091857912	264.8634338378907	899.8880615234375	94.42848968505861	206.1607055664064	980.5226440429688	35.6716423034668	159.9049835205079	980.8359375	36.70858764648439	263.3812561035157	614.5118408203125	233.9639587402344	72.11578369140631	850.5375366210938	46.1519775390625	-0.8902404904364526	769.0152587890625	82.01748657226562	72.70729064941416	742.5571899414062	82.04334259033203	-38.77465820312491	701.9776611328125	111.0285720825195	-20.77974510192863	777.9279174804688	147.4138488769531	20.64788818359384	802.2974243164062	58.88460540771485	60.40148925781259	784.0488891601562	65.28965759277344	-41.80128479003897	0	0	0	682.2421875	1040.820556640625	158.6102752685547	-200	0	-2.449293598294706e-14	-2.449293598294706e-14	1.224646799147353e-14	200	1.499759782661858e-30	200	-1.224646799147353e-14	
101	0.8333333333333335	923.3424682617188	1449.42529296875	123.7992248535157	760.603271484375	1546.687744140625	149.2786865234375	826.8348388671875	1529.720092773438	303.3633117675781	772.8729858398438	1538.067138671875	6.400544166564942	959.3806762695312	1291.812133789062	123.7557830810547	682.5457763671875	1327.853393554688	162.7763214111328	895.9907836914062	1030.466430664062	269.7372436523438	869.1507568359375	1016.030334472656	-2.27050137519832	697.7797241210938	1045.319091796875	209.8724975585938	681.8521118164062	1037.566650390625	107.8456192016602	686.05712890625	1110.014892578125	141.8809356689453	796.3497314453125	1200.385986328125	419.5683898925782	920.3524169921875	957.2454833984375	439.6228027343751	932.9249877929688	950.7704467773438	388.4475708007813	879.09716796875	939.143798828125	447.7782592773438	718.416748046875	1202.004516601562	-106.5504837036133	800.8248901367188	958.98291015625	-189.85888671875	767.0145874023438	946.91064453125	-159.5815734863281	844.3431396484375	957.9630737304688	-164.7986450195312	839.8010864257812	848.0516967773438	-41.68343353271479	934.572265625	635.0870361328125	-50.57789230346672	982.4400024414062	756.7279052734375	-6.450583457946704	1040.970703125	546.066162109375	-2.713141441345121	860.6078491210938	436.7088012695312	-49.35231018066398	764.6763305664062	277.7628479003906	-2.086323738098068	859.7463989257812	333.2970275878906	21.80110359191903	845.30712890625	828.4010009765625	320.4895629882813	857.23974609375	589.3648681640625	285.6247863769532	936.718505859375	747.3998413085938	243.8202667236329	929.4007568359375	522.0125732421875	223.1332397460938	833.8514404296875	429.4777221679688	291.4063720703126	813.6138305664062	176.6266632080078	251.3411254882814	872.575927734375	301.1559143066406	208.8463745117188	716.1982421875	66.66909790039064	195.7340698242188	1033.38525390625	50.6454200744629	207.5880279541017	937.25537109375	32.44317626953126	156.4921417236329	931.761962890625	30.05813980102541	273.9963378906251	878.1026611328125	31.53147315979006	264.8085937500001	899.940673828125	94.16511535644533	206.2535552978517	980.5579833984375	35.35765457153321	160.0320587158204	981.0924072265625	36.76111221313478	263.5031127929689	636.8554077148438	224.6655120849609	71.97108459472662	879.619384765625	45.78847503662109	-1.342800736427202	796.9032592773438	78.75720977783203	72.10134124755869	769.9863891601562	78.60033416748047	-39.97137832641593	728.6973266601562	105.9970932006836	-21.17593955993644	803.18115234375	144.3706817626953	20.38744163513193	830.845947265625	56.76007461547852	59.8673210144044	812.6687622070312	62.99335098266602	-42.358787536621	0	0	0	689.81591796875	1041.44287109375	158.8590545654297	-200	0	-2.449293598294706e-14	-2.449293598294706e-14	1.224646799147353e-14	200	1.499759782661858e-30	200	-1.224646799147353e-14	
102	0.8416666666666668	931.1781616210938	1449.856567382812	123.7843017578125	768.5180053710938	1547.035522460938	149.4846343994141	835.0728149414062	1530.383544921875	303.4549255371094	780.5665283203125	1538.197265625	6.566612720489504	967.4176025390625	1292.20263671875	123.8868713378907	690.4005737304688	1328.28564453125	163.2423706054688	903.5648193359375	1030.523803710938	269.9682617187501	876.6365966796875	1016.622009277344	-2.114438533782914	705.3565063476562	1045.762573242188	210.1917877197266	689.4176025390625	1038.189086914062	108.1320343017578	693.7035522460938	1110.583129882812	142.2810211181641	807.1201782226562	1200.855224609375	420.1349182128907	936.5010375976562	960.6432495117188	440.4237976074219	950.2185668945312	954.97900390625	389.7926940917969	895.7435302734375	941.5759887695312	448.4960327148438	724.2717895507812	1202.233276367188	-105.3405990600586	800.705078125	957.4982299804688	-188.5266876220703	766.6339721679688	946.4052124023438	-157.958023071289	844.374267578125	955.4922485351562	-164.4681549072265	846.4695434570312	849.005615234375	-44.24874877929682	945.1685180664062	636.8294677734375	-50.58082962036125	991.53759765625	759.2061157226562	-6.593085765838548	1052.890625	549.8548583984375	-2.953265428542996	878.931884765625	434.8697509765625	-50.3008499145507	785.1735229492188	273.6147766113281	-3.051790952682416	879.1583862304688	331.3103637695312	20.91535758972176	851.2372436523438	828.390869140625	320.4415283203126	860.4400634765625	589.3598022460938	285.7228393554688	941.5094604492188	746.80859375	243.2207489013672	931.2855834960938	521.1932983398438	222.8645782470704	835.8290405273438	429.5221252441406	291.3873291015626	814.0022583007812	176.6383056640625	251.1163940429689	873.641357421875	300.9311218261719	208.7375793457032	716.3667602539062	66.7943801879883	195.7881011962891	1033.494018554688	50.49348831176759	207.6626281738282	937.1119384765625	31.96492195129396	156.7005157470704	931.8917846679688	29.99650192260744	274.0895080566407	877.8868408203125	31.43538475036623	264.8001098632814	899.9959716796875	93.8513641357422	206.4097290039064	980.6021118164062	34.9781608581543	160.2524414062501	981.3151245117188	36.74246215820314	263.7168884277345	659.3849487304688	214.9208679199219	71.11894989013679	909.4175415039062	46.84369277954102	-2.219186782836805	825.0625610351562	75.46345520019531	71.21112823486338	798.5421142578125	74.19532775878906	-40.83768844604483	756.031494140625	100.1881408691406	-22.43223190307609	828.5908813476562	141.5525970458984	19.53617477417002	860.08642578125	55.21309661865235	58.95513916015636	841.7402954101562	60.79448318481445	-43.2784538269042	0	0	0	697.3870239257812	1041.975830078125	159.1619110107422	-200	0	-2.449293598294706e-14	-2.449293598294706e-14	1.224646799147353e-14	200	1.499759782661858e-30	200	-1.224646799147353e-14	
